<svg width="1024" height="1024" viewBox="0 0 1024 1024" fill="none" xmlns="http://www.w3.org/2000/svg">
<path d="M716.022 113.046C654.831 81.691 585.481 64 512 64C264.576 64 64 264.576 64 512C64 759.424 264.576 960 512 960C642.09 960 759.23 904.552 841.075 816C845.234 811.5 848 808.5 851.5 804.5L827.028 788.943C790.9 765.159 752.213 728.429 721.053 687.935C707.203 669.871 690.344 645.184 685.075 635.249C683.24 631.72 679.553 625.935 678.231 623.863L678.23 623.861L678 623.5C704.155 586.822 719.5 586 753.041 584.82C786.581 583.641 862.891 549.257 881.182 519.903C897.71 493.378 906.785 441.945 881.182 392.326C875.886 382.064 855.534 367.383 837.451 354.34C819.537 341.418 803.851 330.103 807.232 326.28C827.706 303.136 823.603 272.783 798.2 250.637C797.021 249.609 799.13 244.352 802.107 237.669L812.313 203.784C796.054 171.613 746 129 716.022 113.046Z" fill="#0D0D18"/>
<path fill-rule="evenodd" clip-rule="evenodd" d="M692.863 102.008C647.274 87.0758 598.58 79 548 79C459.781 79 377.3 103.567 307.025 146.232C314.514 149.182 321.719 152.571 328.592 156.385C334.205 155.921 338.884 154.118 343.26 152.431C346.268 151.272 349.133 150.168 352.059 149.592C365.757 147.033 378.251 148.237 388.036 153.205C414.379 166.602 425.669 202.73 412.121 230.729C406.1 243.224 383.821 262.04 364.252 271.072C345.134 279.954 338.059 282.663 322.855 286.426C298.921 292.297 293.953 293.05 260.836 295.609C235.095 297.566 211.913 303.738 193.999 313.071L190.085 315.028L195.053 302.684L202 285C202.507 283.975 203.393 281.826 204.392 279.406C205.704 276.225 207.21 272.575 208.3 270.395C210.558 267.008 212.515 257.675 213.117 254.514L213.707 251.228C213.818 251.312 213.916 251.402 214 251.5C208 244.5 197 219 194.5 212.5C192 206 181.957 166.151 193.397 154.71C181.957 166.151 182 191 183 203.5C183.103 204.795 183.213 206.153 183.334 207.559C184.093 216.359 185.328 227.046 188.658 235.877C189.768 238.821 191.111 241.559 192.747 243.951C124.278 324.935 83.0002 429.647 83.0002 544C83.0002 575.256 86.0841 605.792 91.964 635.319C93.293 592.876 100.246 554.615 105.185 537.967C111.888 515.371 139.205 463.002 140.861 464.657C141.162 464.808 139.958 470.528 138.302 477.001C126.711 521.86 125.206 576.052 134.087 623.169C139.055 649.211 147.184 676.909 155.011 693.768L155.131 694.031L155.132 694.034L155.133 694.036C155.997 695.936 158.268 700.927 160.129 705.51C175.634 741.337 212.063 785.744 250.148 815.399C275.438 834.968 319.392 857.645 323 859.5C326.608 861.355 348.446 872.15 355.973 872.15C365.456 872.15 363.499 867.935 339.565 838.28C326.619 822.324 297.265 788.755 285.975 777.164C284.555 775.687 282.749 773.802 280.824 771.794L280.701 771.666C277.558 768.386 274.114 764.793 271.524 762.11C267.158 757.594 255.417 745.853 245.331 735.918C235.095 725.982 224.106 714.994 220.794 711.381L214.773 704.908L222.902 710.327C241.869 722.821 249.395 727.488 266.406 736.971C283.566 746.606 293.803 751.573 307.802 757.143C317.286 761.057 317.286 760.906 304.039 749.466C261.137 712.284 234.643 681.876 218.988 651.168C208.601 630.996 202.279 611.578 201.225 595.922C200.322 584.181 200.322 584.03 202.279 590.654C210.106 617.448 229.676 652.221 247.89 671.64C252.256 676.307 255.868 680.672 255.868 681.124C255.868 681.726 258.879 684.586 262.642 687.597L269.266 693.166L263.546 683.683C254.363 668.479 240.815 635.813 240.815 628.738C240.815 627.534 244.729 630.846 249.546 635.964C264.9 652.673 307.2 686.995 333.393 704.155C336.704 706.263 341.07 709.123 343.177 710.628C356.725 719.811 369.671 728.09 409.261 752.777C480.162 797.185 503.043 813.593 525.322 836.022C544.289 855.14 553.472 875.311 549.558 889.461C548.805 892.321 548.504 894.73 548.956 894.73C550.913 894.73 563.256 884.795 565.514 881.333C568.676 876.666 568.977 858.753 565.966 844.301C563.256 831.055 553.472 806.668 545.644 794.023C541.881 788.002 538.87 782.733 538.87 782.282C538.87 779.121 509.215 740.584 495.366 725.531L489.947 719.66L501.538 727.337C516.591 737.423 539.472 755.788 555.429 770.54C572.439 786.196 607.513 820.818 614.438 828.797C617.599 832.409 623.168 838.581 627.082 842.796C630.996 846.861 635.061 852.28 636.114 854.839L637.921 859.355L639.125 854.989C642.136 842.947 636.114 812.689 624.824 783.938C601.943 725.23 556.783 659.71 508.613 613.045L460.631 575.788C460.519 575.714 460.162 575.468 459.599 575.081L459.594 575.078C455.437 572.222 440.141 561.711 430.336 555.88C419.196 549.106 405.95 541.58 400.831 539.171L380.509 529.688C365.155 523.365 364.101 523.064 357.629 525.473C349.5 528.182 341.07 534.204 338.661 538.72C337.608 540.827 335.509 542.614 335.35 542.483C335.334 542.47 335.317 542.438 335.297 542.39C335.275 542.334 335.249 542.257 335.217 542.161C334.992 541.494 334.467 539.939 332.791 538.72C331.135 538.268 327.221 535.709 324.06 533.301C320.898 530.741 313.673 525.623 308.103 522.011C278.9 503.043 265.051 473.238 271.373 442.68C277.997 410.165 302.985 380.058 347.693 350.704C358.08 343.93 371.779 335.952 378.251 333.092L389.843 327.974L371.929 327.07C362.144 326.468 352.36 325.113 352.36 325.113C352.36 325.113 350.441 325.979 347.392 327.823C344.344 329.667 334.447 335.199 318.339 341.522C304.34 347.091 290.943 352.661 288.534 353.865L284.47 355.973L289.287 346.64C294.392 336.932 307.191 323.344 321.072 311.453C321.072 311.453 313.297 312.168 303.474 315.667C293.652 319.167 256.057 337.194 241.154 346.677C230.616 353.602 210.746 367.752 203.37 374.074C187.112 387.472 175.672 397.708 169.048 404.632C150.734 424.309 142.818 433.949 132.093 453.857C127.835 461.76 128.405 456.416 131.867 444.072C134.676 432.332 138.603 417.541 140.146 413.965C141.689 410.39 152.791 383.859 155.049 375.579C156.103 371.365 157.608 367.15 158.511 366.096C159.414 364.892 159.414 364.29 158.21 364.29C155.952 364.29 150.683 367.3 146.167 371.064L142.705 374.074L146.619 366.246C148.727 362.032 154.567 354.505 155.651 353.602C156.554 352.849 160.017 350.139 163.328 347.731C166.64 345.322 170.102 342.613 171.005 341.86C175.22 338.398 188.166 332.828 190.274 333.581C193.886 334.936 193.284 336.591 184.553 348.183C180.188 354.204 173.564 364.44 170.102 371.064C166.489 377.687 163.027 384.16 162.425 385.364C161.877 386.241 159.81 390.923 158.812 393.192L154.296 404.181C152.339 408.546 154.296 407.191 166.64 394.998C181.844 379.945 203.37 362.784 224.445 348.634C228.057 346.075 231.821 343.366 232.573 342.462C233.477 341.71 235.735 340.054 237.842 339C239.949 337.946 245.67 334.785 250.637 331.925C262.379 325 283.303 314.915 292.787 311.453C293.475 311.207 294.516 310.829 295.816 310.356L295.817 310.356C302.479 307.936 315.932 303.05 323.458 300.878C332.452 298.281 361.843 285.824 361.843 285.824C366.66 284.921 367.601 285.712 367.263 287.932C366.924 290.152 363.761 293.179 351.758 300.878C348.597 302.534 343.177 306.447 343.177 306.447L339.565 309.157C339.565 309.157 321.2 322.705 311.566 331.586L301.781 340.769L318.038 333.242C320.242 332.197 323.261 330.743 326.592 329.139L326.616 329.128L326.618 329.127C336.708 324.269 351.457 317.587 351.457 317.587C351.457 317.587 365.456 314.727 377.8 310.211C386.38 306.899 403.692 291.545 408.057 283.265C426.272 248.643 453.217 229.676 492.958 223.353C528.333 217.934 577.557 232.084 612.029 257.524C628.738 270.018 638.523 280.405 649.662 297.566L650.536 298.91L650.536 298.911L650.537 298.913C656.367 307.884 658.986 311.914 662.031 315.592C664.514 318.592 667.28 321.358 672.302 326.378L673.145 327.221C679.016 333.092 687.596 339.715 693.467 342.876L703.703 348.296L695.424 347.392C672.092 344.984 654.178 339.565 644.695 332.339C638.523 327.673 638.523 328.576 644.093 336.855C653.877 351.005 668.629 360.489 693.166 368.166L713.349 375.102C723.362 377.715 732.835 381.114 736.106 383.294C751.347 393.455 753.041 380.472 747.396 368.617C742.88 359.134 730.461 355.258 724.816 354.505C730.837 353.376 745.953 353.376 756.428 353.376C762.073 353.376 776.185 353.94 783.524 356.763C795.031 361.189 798.765 358.456 785.217 349.425C779.695 345.743 777.011 344.545 776.011 344.099C775.519 343.879 775.435 343.842 775.621 343.78C782.207 343.403 799.894 346.038 808.926 350.554C815.584 353.882 822.819 357.897 828.703 361.162L828.704 361.163L828.706 361.164L828.708 361.165L828.71 361.166C832.741 363.404 836.138 365.289 838.28 366.359C824.732 356.198 799.894 335.877 792.556 327.409C786.436 320.348 771.105 292.41 768.282 274.911C767.412 269.513 766.122 256.168 767.546 246.113C765.971 236.415 765.898 227.526 767.529 220.644C770.54 208.149 784 196.5 797 191C797 191 787.905 183.474 785.218 184.591C785.218 184.591 759.815 145.076 720.3 117.416C719.147 116.608 734.592 125.255 745.371 132.463C744.253 131.273 743.595 130.243 743.595 129.571C743.595 128.066 741.788 121.292 739.53 114.518C736.219 104.583 734.111 100.819 728.391 95.0992C715.445 82.1533 701.445 78.0889 677.059 80.3469C667.779 81.1992 655.937 83.362 648.654 85.224C663.755 90.0553 678.507 95.6658 692.863 102.008ZM715.746 237.654C714.542 230.127 713.488 223.052 713.488 221.848C713.488 220.644 716.499 225.16 719.961 231.934C723.574 238.708 728.24 246.385 730.348 249.245C737.122 258.126 744.949 272.728 747.358 280.857C749.616 288.685 750.369 302.383 748.713 306.748C747.659 309.458 736.821 310.211 735.315 307.652C729.867 294.561 726.414 287.196 718.305 273.932C715.294 269.868 710.628 263.395 708.069 259.331L701.747 248.492C700.994 247.439 699.79 244.277 699.187 241.417C698.134 236.299 698.284 236.299 700.542 239.46C706.577 247.926 710.112 251.799 716.499 257.223C718.606 258.427 718.305 253.761 715.746 237.654Z" fill="#527694"/>
<path d="M851.472 804.352L827.028 788.943C790.9 765.159 752.213 728.429 721.052 687.935C707.203 669.871 690.344 645.184 685.075 635.249C683.118 631.485 680.559 627.27 679.505 625.615C677.699 623.055 677.549 623.206 675.441 627.12C665.355 646.84 663.291 700.112 673.033 727.224C682.774 754.337 704.597 791.009 709.01 788.5C709.01 788.5 709.913 784.427 709.01 780.362C706.3 767.417 705.397 730.084 707.505 722.558L709.461 715.784L713.526 732.041C719.999 757.18 727.525 774.492 741.374 795.566C750.256 809.114 757.03 817.092 764.557 822.662C768.771 825.673 771.632 826.425 778.556 826.425C785.481 826.425 787.287 826.877 787.287 828.834C787.287 832.447 784.427 836.963 777.653 844.188C772.845 849.303 764.105 871.783 759.628 885.4C793.837 862.668 824.743 835.361 851.472 804.352Z" fill="#527694"/>
<path d="M214 251.5C208 244.5 197 219 194.5 212.5C192 206 181.957 166.151 193.397 154.71C202.279 145.829 210.708 143.571 234.192 143.571C271.825 143.571 306.598 154.56 332.791 174.581C349.801 187.677 357.478 200.472 356.424 214.171C355.672 222.45 351.908 227.869 346.79 227.869C345.586 227.869 338.21 222.149 330.382 215.074L316.232 202.279L322.103 212.214C328.726 223.654 330.683 232.084 328.124 238.407C323.909 248.492 317.888 245.181 292.749 219.289C282.061 208.149 270.169 197.311 266.556 195.053C257.825 189.935 248.342 189.784 243.073 194.752C238.557 198.967 238.256 203.934 241.718 223.654C244.277 238.858 243.224 247.288 237.654 255.266C230.88 264.599 220 258.5 214 251.5Z" fill="#D9D9D9"/>
<path d="M692.863 102.008C647.274 87.0758 598.58 79 548 79C459.781 79 377.3 103.567 307.025 146.232C295.032 141.51 282.312 137.916 269.068 135.522C339.052 90.2693 422.458 64 512 64C576.359 64 637.549 77.5713 692.863 102.008Z" fill="#D9D9D9"/>
<path d="M183.334 207.559C184.346 219.292 186.204 234.381 192.747 243.951C124.278 324.935 83.0002 429.647 83.0002 544C83.0002 613.803 98.3807 680.013 125.938 739.428C86.5816 672.764 64 595.019 64 512C64 394.45 109.273 287.475 183.334 207.559Z" fill="#D9D9D9"/>
<path d="M600.062 327.409C585.95 348.86 576.917 351.118 567.321 351.118C557.724 351.118 534.58 340.957 529.5 328.538C524.832 317.127 526.113 308.781 528.935 302.007C533.999 289.853 534.58 304.265 534.58 312.168C534.58 320.071 536.274 330.796 548.693 338.699C554.017 342.087 561.112 348.295 574.66 345.473C578.683 344.635 588.772 338.134 591.594 334.748C593.852 332.038 593.852 333.054 600.062 327.409Z" fill="#D9D9D9"/>
<path d="M606.798 273.819C597.164 257.863 577.444 244.014 556.219 238.595C544.779 235.734 511.511 235.734 499.318 238.745C488.78 241.304 469.663 250.938 461.534 257.863L455.663 262.981L463.641 263.131C470.415 263.282 474.781 264.787 488.931 272.013L506.242 280.744L532.736 280.894C562.692 281.045 566.305 281.948 581.81 292.786C591.745 299.861 601.078 309.345 607.551 318.979C611.916 325.753 612.82 325.603 615.529 317.775C619.443 305.732 616.282 289.625 606.798 273.819Z" fill="#D9D9D9"/>
<path d="M509.554 341.71C503.683 338.548 495.253 334.936 490.737 333.731C472.071 328.463 446.33 329.516 422.245 336.441C363.537 353.301 305.732 410.202 291.883 464.996C290.228 471.77 289.174 477.791 289.625 478.243C290.679 479.447 297.754 473.878 312.356 460.179C318.979 453.857 324.549 449.04 324.7 449.19C324.85 449.341 323.646 453.706 322.141 458.975C318.829 469.211 316.27 498.264 318.528 498.264C319.28 498.264 321.237 495.855 322.893 492.845C324.549 489.834 329.366 484.114 333.882 480.2C349.537 466.2 368.505 459.727 389.88 461.082C396.955 461.383 404.331 462.588 406.439 463.491C409.901 465.147 410.955 464.544 420.74 454.91C429.47 446.481 442.567 436.846 456.867 428.266C458.523 427.212 453.405 426.911 440.008 427.212C420.288 427.814 399.815 425.105 405.837 422.847C407.493 422.245 421.944 420.288 438.051 418.481C484.566 413.363 504.887 408.546 525.209 398.159L535.145 393.041L525.059 392.891C516.78 392.891 492.694 389.429 491.339 388.074C491.189 387.773 496.458 387.472 503.081 387.472C518.736 387.171 529.575 384.762 542.521 378.891L552.757 374.074H532.736C512.866 374.074 512.264 373.924 502.479 369.107C494.952 365.494 490.135 361.58 483.06 353.451C471.77 340.806 472.824 340.806 497.511 353.451L514.07 362.032H530.629C543.725 362.032 550.047 361.279 560.735 358.268L574.283 354.505L556.219 353.602C534.994 352.548 524.156 349.688 509.554 341.71Z" fill="#D9D9D9"/>
<path d="M550.386 298.62C553.848 302.082 554.064 304.829 552.456 309.195C551.402 312.055 549.897 313.108 546.886 313.108C541.467 313.108 537.967 310.098 537.967 303.888C538.532 299.184 546.623 294.856 550.386 298.62Z" fill="#D9D9D9"/>
<path d="M804.749 188.015C806.857 187.263 760.794 142.856 751.31 136.684C741.751 129.27 718.907 116.44 720.3 117.416C759.815 145.076 785.218 184.591 785.218 184.591C787.905 183.474 794.814 191.929 794.814 191.929C794.814 191.929 800.976 189.233 804.749 188.015Z" fill="#D9D9D9"/>
<path d="M805.501 300.313C809.415 300.313 810.77 297.152 809.265 291.131C807.91 285.862 801.287 286.012 799.932 291.582C798.577 296.7 800.985 300.313 805.501 300.313Z" fill="#D9D9D9"/>
<path d="M820.404 197.047C825.823 207.284 817.845 239.949 805.652 257.712C799.179 267.196 793.76 278.636 792.405 285.26L791.351 291.131L788.491 283.905C786.986 279.841 785.33 272.615 784.728 267.798C784.276 262.981 779.76 250.073 779.76 245.218C779.76 233.476 782.62 222.638 788.04 212.402C792.857 203.52 795.265 201.262 803.243 197.198C811.071 193.284 818.297 193.284 820.404 197.047Z" fill="#D9D9D9"/>
<path d="M767.607 245.692C766.086 255.793 767.4 269.437 768.282 274.911C771.105 292.41 786.436 320.348 792.556 327.409C799.894 335.877 824.732 356.198 838.28 366.359C836.138 365.288 832.74 363.403 828.708 361.165C822.823 357.9 815.586 353.883 808.926 350.554C799.894 346.038 782.207 343.403 775.621 343.78C775.435 343.842 775.519 343.879 776.011 344.099C777.011 344.545 779.695 345.743 785.217 349.425C798.765 358.456 795.031 361.189 783.524 356.763C776.185 353.94 762.073 353.376 756.428 353.376C745.953 353.376 730.837 353.376 724.816 354.505C730.461 355.258 742.88 359.134 747.396 368.617C753.041 380.472 751.347 393.455 736.106 383.294C730.508 379.563 706.752 372.265 693.204 371.44C658.582 369.332 626.518 377.235 600.626 395.751L584.256 409.261C580.304 412.084 578.347 413.213 557.724 414.718C534.843 416.525 505.038 421.342 492.243 425.255C461.835 434.89 436.847 451.599 410.654 479.899C406.589 484.114 403.428 488.931 403.428 490.737C403.428 493.296 405.498 494.35 411.519 494.35H450.093C471.62 495.103 509.474 503.344 513.919 504.285C518.365 505.226 559.832 521.145 562.24 523.102C564.8 524.908 569.014 527.618 571.724 528.973L580.869 532.322L594.417 535.144C600.137 536.499 620.418 541.015 625.686 541.015H659.786C725.268 540.865 752.815 533.489 798.427 503.834L814.684 493.146L817.394 496.759C819.953 500.221 820.103 500.221 821.609 497.21C822.512 495.554 824.017 491.339 824.77 487.877C826.125 482.006 825.824 481.103 818.748 470.415C808.362 454.76 797.674 447.384 781.266 444.825C763.503 441.965 751.159 428.417 751.159 412.008C751.159 399.665 760.793 390.181 776.298 387.171C803.846 381.751 847.5 381.149 863.005 385.966C878.811 390.783 885.736 399.966 885.585 415.471C885.435 427.664 882.273 435.04 874.295 442.266C862.102 453.405 858.489 457.469 855.328 464.093C853.522 467.706 849.457 473.878 846.146 477.791C842.834 481.555 839.372 487.275 838.468 490.436C835.909 499.619 836.21 500.07 843.586 499.017L850.059 497.963L860.898 510.457C867.672 518.134 871.586 524.155 871.586 526.263C871.586 530.929 873.241 530.779 877.908 525.661C883.026 520.242 885.134 516.027 886.338 508.35C886.94 504.887 888.144 502.027 888.897 502.027C891.606 502.027 904.853 520.091 909.971 530.628C912.832 536.349 916.143 545.23 917.498 550.198C921.111 563.595 922.014 587.078 919.304 600.626C918.1 606.798 917.348 612.217 917.498 612.518C917.799 612.819 919.606 608.002 921.562 601.981C926.078 587.229 926.53 556.671 922.165 542.671C917.95 528.822 909.52 512.715 900.789 502.328L892.811 492.845L897.477 485.77C900.036 481.856 902.746 478.695 903.499 478.695C907.262 478.695 924.423 490.737 933.304 499.769C955.583 522.048 965.97 551.251 962.056 580.304C961.153 586.777 960.701 592.347 961.002 592.648C962.357 594.153 965.066 581.207 965.819 569.014C967.626 541.617 956.938 514.521 935.863 493.146C929.089 486.372 919.606 478.544 914.788 475.834C907.412 471.62 906.058 470.265 906.81 467.555C907.262 465.899 908.165 461.835 908.617 458.674C909.219 455.663 910.122 453.104 910.724 453.104C913.584 453.104 929.992 459.577 939.777 464.695C953.174 471.62 976.507 494.35 984.937 508.801C990.356 517.984 991.41 516.478 986.292 506.543C973.346 480.953 946.099 457.469 920.358 449.792L909.67 446.631L906.509 436.846C904.703 431.427 903.649 426.61 904.101 426.159C904.552 425.707 913.584 424.954 924.122 424.804C938.272 424.352 945.949 424.804 953.024 426.61C967.023 430.072 985.388 439.857 996.528 449.792C1001.8 454.459 1005.56 457.319 1004.81 456.115C1000.89 449.19 993.668 441.814 985.388 435.943C965.819 421.944 943.239 415.922 915.24 417.428L897.929 418.331L894.617 413.213C889.8 405.837 890.252 404.181 897.628 401.471C915.541 394.848 939.927 393.342 956.637 397.858C971.991 402.073 973.496 402.073 965.368 398.159C955.733 393.342 940.078 389.88 927.734 389.88C916.444 389.88 897.477 393.342 891.155 396.654C888.445 398.009 886.037 398.762 885.736 398.461C885.378 398.222 883.42 395.629 880.977 392.395L880.973 392.39L880.969 392.384L880.961 392.373L880.959 392.37C880.319 391.523 879.647 390.633 878.962 389.73C870.08 377.838 855.328 363.085 833.2 343.968C799.932 315.366 788.943 302.27 778.255 279.54C773.026 268.368 769.382 256.53 767.607 245.692Z" fill="#D9D9D9"/>
<path d="M832.146 528.37C834.856 528.37 839.974 534.693 839.974 538.155C839.974 549.746 803.394 573.831 775.244 580.906C749.052 587.379 701.634 588.433 670.474 583.164C656.926 580.906 629.378 572.928 639.765 574.283C669.269 578.197 694.408 578.949 709.763 576.541L717.289 575.487L710.214 575.186C695.312 574.885 656.324 568.864 638.26 564.348C627.873 561.789 619.292 559.531 618.991 559.23C618.841 559.079 631.636 559.23 647.593 559.681C678.151 560.434 696.967 558.929 722.558 553.961C759.439 546.735 771.481 542.52 780.513 534.091L786.986 528.37L794.814 530.026C799.179 530.929 806.254 531.381 810.469 530.929C817.093 530.327 818.748 529.424 822.512 524.758L827.028 519.338L828.834 523.854C829.888 526.263 831.393 528.37 832.146 528.37Z" fill="#D9D9D9"/>
<path fill-rule="evenodd" clip-rule="evenodd" d="M673.261 497.443C673.973 499.408 665.051 503.285 663.146 504.145C660.358 505.405 657.817 506.443 655.425 507.421C650.679 509.361 646.52 511.061 642.18 513.769C635.978 517.638 629.634 523.533 622.392 535.12C607.717 558.599 603.854 574.115 600.917 588.31C600.501 590.319 598.041 599.209 596 599C593.959 598.791 593 589.551 593 587.5C593 577.929 595.627 552.54 613.745 527.175C623.381 513.684 632.761 506.59 641.108 502.582C647.249 499.632 652.994 498.353 657.078 497.443C658.377 497.154 659.507 496.902 660.429 496.646C662.443 496.086 672.549 495.478 673.261 497.443Z" fill="#D9D9D9"/>
<path fill-rule="evenodd" clip-rule="evenodd" d="M671.146 479.145C673.051 478.285 673.973 476.103 673.261 474.138C672.549 472.172 670.443 471.086 668.429 471.646C668.048 471.752 667.601 471.875 667.094 472.014L667.092 472.014C661.65 473.51 649.225 476.924 635.16 482.192C619.856 487.922 602.236 495.98 589.47 506.401C575.19 518.059 563.786 532.687 555.95 545.519C552.027 551.943 548.962 557.977 546.863 563.038C544.839 567.92 543.5 572.394 543.5 575.5C543.5 577.551 542.959 588.791 545 589C547.041 589.209 551.001 578.319 551.417 576.31C552.044 573.282 553.78 569.157 556.537 564.234C559.26 559.373 562.845 553.966 566.961 548.423C575.201 537.325 585.405 525.899 594.69 517.46C603.669 509.3 618.633 501.518 633.691 494.803C641.155 491.475 648.523 488.459 655.025 485.826C655.887 485.477 656.735 485.134 657.568 484.797C662.97 482.614 667.708 480.698 671.146 479.145Z" fill="#D9D9D9"/>
<path fill-rule="evenodd" clip-rule="evenodd" d="M643 456.278C643.397 458.12 632.364 461.37 630.646 462.145C626.436 464.047 619.506 466.069 611.391 468.358C610.141 468.71 608.858 469.07 607.542 469.439C600.159 471.512 591.785 473.862 583.015 476.627C562.269 483.169 539.851 491.875 523.946 504.165C491.18 529.484 479.521 543.18 469.828 557.719C468.794 559.27 464.281 568.161 462.537 567.5C460.794 566.839 462.283 556.801 462.537 554.953C463.139 550.59 465.192 545.702 468.108 540.643C471.057 535.528 475.041 529.977 479.781 524.242C489.263 512.772 501.957 500.341 515.97 488.901C522.587 483.5 532.243 478.725 542.899 474.598C553.625 470.444 565.663 466.837 577.26 463.874C588.865 460.91 600.091 458.576 609.218 456.982C618.23 455.407 625.484 454.5 629 454.5C630.885 454.5 642.603 454.435 643 456.278Z" fill="#D9D9D9"/>
<path d="M636.906 444.479C638.748 444.291 648.255 444.423 648.5 442.588C648.745 440.753 639.664 437.431 637.936 436.767C635.755 435.928 632.629 435.434 629.134 435.118C625.529 434.792 621.151 434.625 616.245 434.594C606.425 434.53 594.287 435.005 581.598 435.885C556.29 437.639 528.381 441.032 512.03 445.119C498.354 448.538 475.644 460.223 455.555 473.406C445.447 480.039 435.839 487.158 428.211 493.969C420.733 500.646 414.646 507.466 412.274 513.546C411.567 515.357 409.837 522.493 411.5 523.5C413.163 524.507 417.738 519.094 419.016 517.628C421.324 514.979 426.192 510.86 432.981 505.887C439.683 500.977 448.013 495.409 457.03 489.872C475.13 478.76 495.696 467.961 511.26 462.796C526.831 457.629 551.957 453.664 576.545 450.676C594.301 448.518 611.517 446.897 624.355 445.688L624.357 445.688C629.245 445.228 633.499 444.827 636.906 444.479Z" fill="#D9D9D9"/>
<path d="M643 426.5C644.927 426.5 653.928 426.395 654.28 424.5C654.632 422.605 646.235 419.459 644.436 418.767C642.308 417.948 638.97 417.343 635.086 416.854C631.078 416.349 626.101 415.924 620.458 415.585C609.166 414.907 595.047 414.562 580.358 414.625C551.145 414.75 519.061 416.487 502.53 420.619C489.424 423.896 466.122 430.524 444.349 439.085C433.466 443.364 422.865 448.164 414.078 453.318C405.41 458.402 398.013 464.109 394.104 470.386C393.113 471.977 389.161 479.774 390.5 481.087C391.839 482.399 398.109 476.875 399.68 475.853C408.974 469.811 425.672 462.944 445.051 456.278C464.311 449.652 485.841 443.349 504.531 438.365C522.855 433.479 552.243 430.493 579.878 428.742C607.415 426.998 632.831 426.5 643 426.5Z" fill="#D9D9D9"/>
<path d="M661.5 500.5C646 507.5 634 509 619 533C604 557 600 573 597 587.5C597 578.5 599.5 554 617 529.5C635.571 503.5 652.5 503 661.5 500.5Z" fill="#527694"/>
<path d="M669.5 475.5C654 482.5 611 497.232 592 514.5C573 531.768 550.5 561 547.5 575.5C547.5 566.5 564.304 532.109 592 509.5C616.5 489.5 660.5 478 669.5 475.5Z" fill="#527694"/>
<path d="M629 458.5C613.5 465.5 554.5 475.5 521.5 501C488.5 526.5 476.5 540.5 466.5 555.5C468.5 541 490.804 514.609 518.5 492C543 472 616.5 458.5 629 458.5Z" fill="#527694"/>
<path d="M636.5 440.5C612 443 542 448.381 510 459C478 469.619 426.5 502.951 416 515C424 494.5 487 455.5 513 449C545 441 623.5 435.5 636.5 440.5Z" fill="#527694"/>
<path d="M643 422.5C622.5 422.5 541 424.5 503.5 434.5C466 444.5 417 459.82 397.5 472.5C411 450.82 477.5 431 503.5 424.5C535.5 416.5 630 417.5 643 422.5Z" fill="#527694"/>
</svg>
